<?xml version="1.0" encoding="UTF-8"?>
<svg version="1.1" xmlns="http://www.w3.org/2000/svg" width="512" height="512">
<path d="M0 0 C1.05960937 0.98033203 1.05960937 0.98033203 2.140625 1.98046875 C25.07399489 23.84175021 40.28292106 54.30687953 50 84 C50.31179199 84.94552734 50.62358398 85.89105469 50.94482422 86.86523438 C53.68901663 95.88120174 52.48325564 102.51189587 49.5 111.3125 C49.23864258 112.08376221 48.97728516 112.85502441 48.70800781 113.6496582 C38.79788645 141.91745261 21.20666068 163.79041589 0.3125 184.8125 C-0.19764648 185.32731934 -0.70779297 185.84213867 -1.23339844 186.37255859 C-4.68225262 189.80708846 -8.2803714 193.02530474 -11.95825195 196.2121582 C-18.13754713 201.62301299 -24.0505687 207.33937604 -30 213 C-30.85295654 213.80775879 -30.85295654 213.80775879 -31.72314453 214.63183594 C-55.83425608 237.58283577 -74.27108294 267.42271455 -75.203125 301.51171875 C-75.60631924 333.20740842 -68.69778964 363.30621237 -55.06640625 391.95703125 C-53.7810208 395.62485272 -53.46756558 398.1409505 -54 402 C-59.59250202 409.52387843 -70.65815872 411.46882678 -79.5 413.3125 C-103.30493136 416.66712447 -127.29089584 413.2986933 -147.1640625 399.1796875 C-168.57681855 382.72194938 -180.29677561 359.95801317 -184.3125 333.4375 C-186.3678174 314.70249141 -185.01217941 296.26406567 -177 279 C-176.58105469 278.0925 -176.16210938 277.185 -175.73046875 276.25 C-169.52026904 263.93698155 -160.04528175 253.88459273 -150.63476562 243.96875 C-127.90399505 220.00991536 -112.0360917 193.26449224 -112.81640625 159.16015625 C-113.42394409 148.7027496 -114.88119399 138.67647522 -117.375 128.5 C-117.57182373 127.68789062 -117.76864746 126.87578125 -117.97143555 126.0390625 C-120.46676697 116.22657146 -120.46676697 116.22657146 -126 108 C-129.21567216 107.65047042 -131.38358852 107.74045833 -134.375 109 C-136.84792382 112.04359854 -136.34258774 115.26751062 -136 119 C-135.39280058 121.83649827 -134.53050032 124.55863922 -133.625 127.3125 C-127.03148172 148.54547321 -124.396237 174.16766818 -134 195 C-135.93359375 197.8359375 -135.93359375 197.8359375 -139 200 C-142.76471638 200.69277887 -146.43367165 200.6133093 -150.25 200.5 C-151.3239502 200.4808252 -152.39790039 200.46165039 -153.50439453 200.44189453 C-184.08953268 199.59674882 -212.43386514 187.98333687 -234 166 C-252.06073975 145.4143213 -259.46090354 120.3346423 -259.3125 93.3125 C-259.31034485 92.60557007 -259.3081897 91.89864014 -259.30596924 91.17028809 C-259.25377448 80.49540378 -258.74970233 70.36582074 -256 60 C-255.81727539 59.25524414 -255.63455078 58.51048828 -255.44628906 57.74316406 C-250.78509597 38.99889169 -242.7217061 20.43479312 -231 5 C-230.36707031 4.15953125 -229.73414063 3.3190625 -229.08203125 2.453125 C-227.10935203 -0.08261436 -225.07549826 -2.54783724 -223 -5 C-222.26265625 -5.88429687 -221.5253125 -6.76859375 -220.765625 -7.6796875 C-198.65106662 -33.19092641 -166.44653776 -46.0479378 -133.3125 -48.75 C-82.79961422 -51.08212734 -36.5472978 -34.80443533 0 0 Z " fill="#ffffff" transform="translate(259,69)"/>
<path d="M0 0 C8.9215709 4.78475311 15.33108707 9.35158951 20.5 18.125 C23.46857834 22.33268298 25.67439013 24.09803503 30.64453125 25.0703125 C35.42757217 25.73628422 40.23765068 26.10201099 45.04833984 26.50976562 C67.28557594 29.00155785 89.98010541 43.78173368 104.0390625 60.546875 C118.58497133 79.80858076 125.8846176 101.63167012 123.75 125.8125 C121.79360062 139.513477 115.60691573 151.36784344 106.75 161.8125 C105.98558594 162.77671875 105.22117187 163.7409375 104.43359375 164.734375 C89.21771735 182.93617033 63.76070421 192.66680732 40.75 194.8125 C40.78351563 195.60011719 40.81703125 196.38773438 40.8515625 197.19921875 C40.75 199.8125 40.75 199.8125 39.125 201.625 C35.9939841 203.19050795 34.23410895 203.24643376 30.75 202.8125 C28.4778869 201.11645676 26.65290917 199.5558053 24.6875 197.5625 C23.6771453 196.576725 22.66544244 195.59232974 21.65234375 194.609375 C20.92180786 193.899021 20.92180786 193.899021 20.17651367 193.17431641 C18.12330796 191.21423058 16.08616262 189.42924831 13.75 187.8125 C8.68709322 187.9482106 8.68709322 187.9482106 4.75 190.8125 C4.40477544 193.82088544 4.17575911 195.90784461 4.75 198.8125 C7.12500791 201.68890616 7.12500791 201.68890616 9.75 203.8125 C9.75 204.4725 9.75 205.1325 9.75 205.8125 C10.34039062 206.07804688 10.93078125 206.34359375 11.5390625 206.6171875 C13.80716052 207.84340304 15.28352098 209.14601588 17.125 210.9375 C29.92820058 222.33923706 46.22599672 227.72628903 62.796875 230.76245117 C71.56129066 232.52304724 78.87656336 236.68304427 84.46484375 243.78125 C89.91967825 252.40287292 91.27046084 261.7898715 89.125 271.69921875 C86.64369377 279.64161412 82.25335353 285.98607091 75.1484375 290.4453125 C61.02756542 297.73484823 42.48699783 296.28384205 27.32421875 292.859375 C21.38410262 290.44366768 19.47335294 285.60778769 16.9375 280.125 C8.76863678 263.22836136 -2.78987666 253.92607538 -19.85546875 246.7109375 C-32.47063041 242.41897471 -48.82777742 243.51592481 -61.25 247.8125 C-62.24 248.1425 -63.23 248.4725 -64.25 248.8125 C-65.06055074 252.57050798 -65.53666538 255.0368172 -64.1875 258.6875 C-62.38291581 261.00518989 -62.38291581 261.00518989 -59.5625 261.75 C-56.15730106 261.96726775 -56.15730106 261.96726775 -52.62109375 260.83984375 C-41.37436417 257.91762759 -27.61284521 258.48175686 -17.25 263.8125 C-4.12809932 271.79296994 3.54246773 282.04488229 7.625 296.9375 C8.82924283 302.27560565 9.07561217 307.36151106 8.75 312.8125 C9.97589844 312.57273437 9.97589844 312.57273437 11.2265625 312.328125 C21.74476397 310.788876 33.16797205 310.10789613 42.078125 316.4765625 C48.70328797 321.84080736 52.84337341 328.19954737 53.75 336.8125 C54.43983387 345.60788178 52.29751907 352.4656144 46.625 359.1875 C39.88881727 366.15332533 32.76971503 368.54682189 23.22603035 368.90802574 C20.18424873 368.9494544 17.14387327 368.95903883 14.10180664 368.95776367 C12.9463031 368.96112228 11.79079956 368.9644809 10.60028076 368.96794128 C6.78689492 368.977425 2.97355315 368.97939348 -0.83984375 368.98046875 C-2.83018983 368.9828708 -4.82053592 368.98527481 -6.81088167 368.98792917 C-13.07257343 368.99605817 -19.33425083 368.99851505 -25.59594727 368.99780273 C-32.01519906 368.99720423 -38.4343662 369.0077141 -44.85359663 369.0235464 C-50.39449798 369.03671611 -55.93537202 369.04198262 -61.47628886 369.04134732 C-64.77208339 369.04109482 -68.06778695 369.044756 -71.36356926 369.05452538 C-108.41205618 369.15401599 -108.41205618 369.15401599 -122.25 362.8125 C-123.60158203 362.19761719 -123.60158203 362.19761719 -124.98046875 361.5703125 C-146.50656592 350.82244452 -155.83874155 330.27170213 -163.16943359 308.57177734 C-173.9805427 275.16905587 -177.65897186 239.5015277 -161.55249023 207.15576172 C-152.2844785 189.31455343 -137.60769762 173.57977263 -122.47265625 160.5078125 C-79.02741741 122.66196003 -45.17172686 80.29336977 -40.25 20.8125 C-40.1762989 19.09539952 -40.11180923 17.37788819 -40.0546875 15.66015625 C-40.0227832 14.76441895 -39.99087891 13.86868164 -39.95800781 12.94580078 C-39.90404756 11.19336208 -39.86852056 9.44022486 -39.85449219 7.68701172 C-39.71006931 2.29917602 -38.92187205 -0.96150908 -35.25 -5.1875 C-23.93436991 -8.9593767 -10.32353481 -4.90956379 0 0 Z M23.30859375 78.24609375 C19.50526554 82.5912066 18.38399197 85.97976541 18.46875 91.75390625 C19.09846745 96.36308812 22.02120275 99.17046432 25.375 102.125 C29.46448568 105.0306872 32.8151694 105.31059505 37.75 104.8125 C42.61978839 103.09375116 46.2497252 100.37649368 48.75 95.8125 C50.26595317 91.05311215 50.21709306 87.07937595 48.1875 82.5 C45.98887761 78.74588966 43.74225508 76.69563919 39.75 74.8125 C33.33468031 73.15396134 28.26294412 73.31859623 23.30859375 78.24609375 Z " fill="#ffffff" transform="translate(371.25,123.1875)"/>
<path d="M0 0 C3.16274493 3.32088217 3.97766934 5.11607798 4.09375 9.7109375 C4.0628125 10.79632813 4.031875 11.88171875 4 13 C4.70084717 12.97381592 5.40169434 12.94763184 6.1237793 12.9206543 C9.3114565 12.8164646 12.49877526 12.75160417 15.6875 12.6875 C17.34168945 12.6246582 17.34168945 12.6246582 19.02929688 12.56054688 C27.18648432 12.43732652 27.18648432 12.43732652 31.23046875 15.234375 C32.99594354 17.99366011 33.6811831 19.331972 33.625 22.5625 C33.63789062 23.30628906 33.65078125 24.05007813 33.6640625 24.81640625 C33 27 33 27 30.5 28.83203125 C27.6734351 30.82577519 27.6734351 30.82577519 27.3984375 34.3203125 C27.39070313 35.57585937 27.38296875 36.83140625 27.375 38.125 C27.00692918 49.80454981 24.10766507 58.839317 15.75 67.26953125 C7.56196884 74.74380312 7.56196884 74.74380312 1.875 75.3125 C0.92625 75.209375 -0.0225 75.10625 -1 75 C-3.65348711 71.01976933 -3.05003862 67.71386245 -2.875 63.125 C-2.6395338 49.04624999 -6.27699492 38.3890548 -15.90234375 27.93359375 C-18.09985458 25.70820752 -20.36869967 23.575511 -22.6796875 21.46875 C-24 20 -24 20 -24.375 17.4375 C-24.25125 16.633125 -24.1275 15.82875 -24 15 C-20.3558226 12.5705484 -18.28758728 12.83820425 -14 13 C-14.04640625 12.39671875 -14.0928125 11.7934375 -14.140625 11.171875 C-14.43813387 4.5841785 -14.43813387 4.5841785 -12.125 1.5 C-8.08070652 -1.3547954 -4.70645467 -1.4975083 0 0 Z " fill="#ffffff" transform="translate(479,325)"/>
</svg>
